<svg xmlns="http://www.w3.org/2000/svg" viewBox="0 0 600 400">
  <!-- Worker Node 1 -->
  <rect x="50" y="120" width="240" height="260" rx="10" fill="#f0f0f0" stroke="#666"/>
  <text x="60" y="145" font-family="Arial" font-size="14">Worker Node 1</text>
  
  <!-- Worker Node 2 -->
  <rect x="310" y="120" width="240" height="260" rx="10" fill="#f0f0f0" stroke="#666"/>
  <text x="320" y="145" font-family="Arial" font-size="14">Worker Node 2</text>
  
  <!-- Network -->
  <path d="M170 80 L430 80" stroke="#666" stroke-width="2"/>
  <circle cx="300" cy="80" r="5" fill="#666"/>
  <text x="260" y="70" font-family="Arial" font-size="14">Network</text>
  
  <!-- Node 1 Components -->
  <rect x="60" y="160" width="220" height="200" rx="5" fill="#326CE5" fill-opacity="0.1" stroke="#326CE5"/>
  <text x="70" y="185" font-family="Arial" font-size="14" fill="#326CE5">kubelet</text>
  
  <rect x="70" y="200" width="200" height="140" rx="5" fill="#60B932" fill-opacity="0.2" stroke="#60B932"/>
  <text x="80" y="225" font-family="Arial" font-size="14" fill="#60B932">containerd</text>
  
  <rect x="90" y="240" width="80" height="80" rx="5" fill="#326CE5" fill-opacity="0.2" stroke="#326CE5"/>
  <text x="100" y="265" font-family="Arial" font-size="14" fill="#326CE5">Pod</text>
  
  <rect x="170" y="240" width="80" height="80" rx="5" fill="#326CE5" fill-opacity="0.2" stroke="#326CE5"/>
  <text x="180" y="265" font-family="Arial" font-size="14" fill="#326CE5">Pod</text>
  
  <!-- Node 2 Components -->
  <rect x="320" y="160" width="220" height="200" rx="5" fill="#326CE5" fill-opacity="0.1" stroke="#326CE5"/>
  <text x="330" y="185" font-family="Arial" font-size="14" fill="#326CE5">kubelet</text>
  
  <rect x="330" y="200" width="200" height="140" rx="5" fill="#60B932" fill-opacity="0.2" stroke="#60B932"/>
  <text x="340" y="225" font-family="Arial" font-size="14" fill="#60B932">containerd</text>
  
  <rect x="350" y="240" width="80" height="80" rx="5" fill="#326CE5" fill-opacity="0.2" stroke="#326CE5"/>
  <text x="360" y="265" font-family="Arial" font-size="14" fill="#326CE5">Pod</text>
  
  <rect x="430" y="240" width="80" height="80" rx="5" fill="#326CE5" fill-opacity="0.2" stroke="#326CE5"/>
  <text x="440" y="265" font-family="Arial" font-size="14" fill="#326CE5">Pod</text>
</svg>
